<?xml version="1.0" encoding="UTF-8"?>
<svg id="Layer_1" xmlns="http://www.w3.org/2000/svg" viewBox="0 0 548.92 76.91">
  <defs>
    <style>
      .cls-1 {
        fill: #279af1;
      }

      .cls-2 {
        fill: #74c6f7;
      }
    </style>
  </defs>
  <g>
    <path class="cls-1" d="M148.58,58.77h-40.57V.5h39.5v11.9h-27.86v11.24h26.26v11.4h-26.26v11.74h28.92v11.99Z"/>
    <path class="cls-1" d="M178.87,17.73h13.09v.42l-11.95,19.98,12.63,20.39v.25h-13.09l-6.93-12.32-6.85,12.32h-13.17v-.25l12.71-20.39-12.03-19.98v-.42h13.09l6.24,12.24,6.24-12.24Z"/>
    <path class="cls-1" d="M197.9,76.91V17.73h9.82l.69,5.24c3.5-4.91,7.76-5.99,12.48-5.99,11.04,0,18.57,8.49,18.57,21.31s-7.69,21.39-18.72,21.39c-3.96,0-8.6-1.5-11.8-5.83v23.06h-11.04ZM228.42,38.29c0-5.91-3.35-10.57-9.21-10.57-4.95,0-10.12,2.75-10.12,10.57,0,6.91,5.1,10.57,10.12,10.57,5.63,0,9.21-4.41,9.21-10.57Z"/>
    <path class="cls-1" d="M255.59,42.12c.53,4,4.03,7.24,10.2,7.24,2.97,0,7.08-.75,9.74-3.25l6.17,7.49c-4.03,4.33-10.5,6.08-16.13,6.08-13.62,0-21.08-8.74-21.08-21.89s7.69-21.23,19.94-21.23,21.16,8.74,18.8,25.55h-27.63ZM273.4,33.38c-.23-4.49-4.41-6.58-8.98-6.58s-7.76,2.5-8.83,6.58h17.81Z"/>
    <path class="cls-1" d="M300.73,17.73l.84,4.49c2.51-3.83,5.86-5.49,10.05-5.49,3.58,0,6.54,1.17,9.21,3.75l-4.57,9.49c-1.83-1.42-3.73-2.08-6.01-2.08-4.72,0-8.75,3.33-8.75,9.49v21.39h-10.96V17.73h10.2Z"/>
    <path class="cls-1" d="M336.8,6.74c0,8.99-12.48,8.99-12.48,0s12.48-8.99,12.48,0ZM325.08,17.56v41.2h10.96V17.56h-10.96Z"/>
    <path class="cls-1" d="M354.31,42.12c.53,4,4.03,7.24,10.2,7.24,2.97,0,7.08-.75,9.74-3.25l6.17,7.49c-4.03,4.33-10.5,6.08-16.13,6.08-13.62,0-21.08-8.74-21.08-21.89s7.69-21.23,19.94-21.23,21.16,8.74,18.8,25.55h-27.63ZM372.12,33.38c-.23-4.49-4.41-6.58-8.98-6.58s-7.76,2.5-8.83,6.58h17.81Z"/>
    <path class="cls-1" d="M416.34,58.77v-21.72c0-6.33-2.51-9.57-7.76-9.57-5.1-.08-8.52,4.74-8.52,10.07v21.23h-10.81V17.65h9.89l.38,5.24c3.35-4.74,7.61-6.33,12.18-6.24,8.45,0,15.68,4.33,15.68,20.31v21.81h-11.04Z"/>
    <path class="cls-1" d="M469.16,53.36c-4.49,4.83-9.89,6.33-14.69,6.33-10.96,0-20.55-6.58-20.55-21.39,0-13.82,9.51-21.56,20.47-21.56,5.48,0,9.82,1.33,13.62,5.66l-6.09,7.57c-2.28-1.91-4.79-2.41-7.08-2.41-5.48,0-9.89,3.91-9.89,10.74s4.57,10.32,9.67,10.32c2.44,0,5.78-1.08,7.61-3.08l6.93,7.82Z"/>
    <path class="cls-1" d="M482.7,42.12c.53,4,4.03,7.24,10.2,7.24,2.97,0,7.08-.75,9.74-3.25l6.17,7.49c-4.03,4.33-10.5,6.08-16.13,6.08-13.62,0-21.08-8.74-21.08-21.89s7.69-21.23,19.94-21.23,21.16,8.74,18.8,25.55h-27.63ZM500.51,33.38c-.23-4.49-4.41-6.58-8.98-6.58s-7.76,2.5-8.83,6.58h17.81Z"/>
    <path class="cls-1" d="M541.31,29.3c-2.82-2.16-5.48-3-8.91-3s-5.4,1.42-5.4,3.41c0,2.25,1.9,3.5,5.56,3.58,7.38.25,16.29,1.91,16.36,13.23.08,6.66-4.49,13.82-16.44,13.82-5.56,0-11.26-1.17-17.66-6.99l4.72-8.49c4.64,4.16,9.13,5.08,13.09,5.16,3.2.08,5.71-1.33,5.63-3.5,0-1.91-1.29-3.5-6.39-3.66-7-.33-15.76-3.5-15.76-13.15s8.07-13.23,16.21-13.23c5.78,0,10.43,1.58,14.38,5.33l-5.4,7.49Z"/>
  </g>
  <path class="cls-2" d="M76.38,14.39c-12.51,0-22.65,10.43-22.66,23.29,0,.24,0,.47.01.71,0,.14,0,.28.01.42,0,.08,0,.17.01.25.03.41.06.82.11,1.22,1.46,15.37,15.42,28.24,20.6,32.52,1.12.93,2.71.93,3.83,0,5.18-4.28,19.13-17.15,20.59-32.52.05-.4.08-.81.11-1.22,0-.08.01-.17.01-.25,0-.14.01-.28.01-.42.01-.24.01-.47.01-.71,0-12.86-10.14-23.29-22.65-23.29ZM76.38,51.22c-6.89,0-12.49-5.75-12.49-12.84s5.59-12.84,12.49-12.84,12.48,5.75,12.48,12.84-5.58,12.84-12.48,12.84Z"/>
  <path class="cls-2" d="M51.11,53.23c-5.56,5.81-12.74,8.43-20.77,8.43C9.73,61.66,1.54,47.59,1.47,31.96,1.39,17.15,10.5,1.6,30.34,1.6c7.41,0,14.28,3.03,19.84,8.84l-7.57,7.94c-3.24-3.36-7.95-4.75-12.28-4.75-12.28,0-17.06,10.07-16.99,18.41.08,8.35,4.32,17.84,16.99,17.84,4.32,0,10.04-2.05,13.28-5.48l7.49,8.84Z"/>
</svg>